<!DOCTYPE svg PUBLIC "-//W3C//DTD SVG 1.1//EN" "http://www.w3.org/Graphics/SVG/1.1/DTD/svg11.dtd">
<!-- Uploaded to: SVG Repo, www.svgrepo.com, Transformed by: SVG Repo Mixer Tools -->
<svg fill="#005b52" height="800px" width="800px" version="1.1" id="Capa_1" xmlns="http://www.w3.org/2000/svg" xmlns:xlink="http://www.w3.org/1999/xlink" viewBox="0 0 313.725 313.725" xml:space="preserve" stroke="#005b52">
<g id="SVGRepo_bgCarrier" stroke-width="0"/>
<g id="SVGRepo_tracerCarrier" stroke-linecap="round" stroke-linejoin="round"/>
<g id="SVGRepo_iconCarrier"> <g> <path d="M218.992,133.607c1.628,0.715,3.265,1.418,4.888,2.123c4.772,2.074,9.742,3.039,14.948,2.731 c8.855-0.516,18.07-5.216,18.913-15.826c0.779-9.742-22.826-17.339-24.893-19.288c-6.124-5.762-8.174-12.512-15.047-17.402 c-1.195-0.852-2.406-1.71-3.681-2.439c-0.766-0.427-1.015-0.927-0.927-1.755c0.292-2.843,0.579-5.682,0.804-8.522 c0.407-5.094-1.062-9.73-5.148-12.733c-1.647-1.206-9.742-5.133-13.272,8.288c-0.767,2.922-1.805,5.827-3.195,8.498 c-5.094,9.783-11.558,18.719-17.748,27.828c-2.822,4.156-5.643,8.303-8.457,12.451l43.304,24.657 C209.48,142.218,217.825,133.093,218.992,133.607z"/> <path d="M156.862,0C70.368,0,0,70.368,0,156.862s70.368,156.862,156.862,156.862s156.862-70.368,156.862-156.862 S243.356,0,156.862,0z M290,156.862c0,32.443-11.671,62.209-31.027,85.333l-51.826-51.824v-8.427 c0.042-0.231,0.072-0.469,0.072-0.712v-31.312L161.1,123.476h-20.851L71.526,54.755c23.124-19.358,52.891-31.03,85.336-31.03 C230.274,23.725,290,83.45,290,156.862z M23.725,156.862c0-32.443,11.671-62.209,31.027-85.332l51.947,51.945h-6.281 l-18.846-15.141c-4.264-3.425-10.497-2.745-13.92,1.518c-3.425,4.263-2.745,10.495,1.518,13.92l19.234,15.453v42.007 c0,0.231,0.03,0.456,0.068,0.677l-16.937,32.542c-2.524,4.851-0.639,10.829,4.212,13.354c1.46,0.76,3.022,1.12,4.563,1.12 c3.575,0,7.027-1.942,8.791-5.332l17.04-32.74l19.065,33.109c1.832,3.183,5.164,4.962,8.589,4.962c1.676,0,3.376-0.426,4.932-1.322 c4.739-2.729,6.368-8.782,3.639-13.52l-16.633-28.885h42.69l18.923,18.923v14.902c0,5.468,4.433,9.901,9.901,9.901 c4.03,0,7.49-2.412,9.036-5.867l35.915,35.914C219.073,278.328,189.307,290,156.862,290C83.45,290,23.725,230.274,23.725,156.862z"/> </g> </g>
</svg>