<!DOCTYPE svg PUBLIC "-//W3C//DTD SVG 1.1//EN" "http://www.w3.org/Graphics/SVG/1.1/DTD/svg11.dtd">
<!-- Uploaded to: SVG Repo, www.svgrepo.com, Transformed by: SVG Repo Mixer Tools -->
<svg fill="#005b52" height="800px" width="800px" version="1.1" id="Capa_1" xmlns="http://www.w3.org/2000/svg" xmlns:xlink="http://www.w3.org/1999/xlink" viewBox="0 0 395 395" xml:space="preserve" stroke="#005b52">
<g id="SVGRepo_bgCarrier" stroke-width="0"/>
<g id="SVGRepo_tracerCarrier" stroke-linecap="round" stroke-linejoin="round"/>
<g id="SVGRepo_iconCarrier"> <g> <path style="fill-rule:evenodd;clip-rule:evenodd;" d="M313.002,0H82C36.785,0,0,36.784,0,81.998v230.993 C0,358.211,36.785,395,82,395h231.002C358.216,395,395,358.211,395,312.991V81.998C395,36.784,358.216,0,313.002,0z M380,312.991 C380,349.94,349.944,380,313.002,380H82c-36.944,0-67-30.06-67-67.009V81.998C15,45.055,45.056,15,82,15h231.002 C349.944,15,380,45.055,380,81.998V312.991z"/> <path style="fill-rule:evenodd;clip-rule:evenodd;" d="M189.984,176.123h-83.44l-25.912-20.818 c-5.859-4.709-14.43-3.774-19.14,2.086c-4.709,5.862-3.774,14.431,2.087,19.14l26.446,21.247v57.764 c0,0.321,0.033,0.634,0.087,0.94l-23.281,44.732c-3.472,6.669-0.879,14.89,5.791,18.361c2.008,1.045,4.156,1.54,6.273,1.54 c4.915,0,9.662-2.67,12.088-7.332l23.43-45.018l26.215,45.526c2.52,4.375,7.1,6.823,11.811,6.823c2.305,0,4.641-0.586,6.781-1.818 c6.516-3.752,8.756-12.076,5.004-18.591l-22.87-39.717h84.717V307.5c0,7.519,6.096,13.614,13.614,13.614 c7.519,0,13.614-6.095,13.614-13.614l0.1-95.014L189.984,176.123z"/> <path style="fill-rule:evenodd;clip-rule:evenodd;" d="M288.638,148.448c-8.418-7.925-11.238-17.206-20.689-23.929 c-1.644-1.173-3.309-2.354-5.061-3.355c-1.053-0.587-1.396-1.273-1.273-2.416c0.401-3.903,0.797-7.809,1.105-11.717 c0.561-7.003-1.459-13.38-7.081-17.508c-2.263-1.656-13.396-7.055-18.247,11.4c-1.055,4.018-2.484,8.01-4.395,11.678 c-7.004,13.457-15.893,25.744-24.403,38.269c-3.883,5.717-7.762,11.414-11.63,17.116l59.543,33.908 c0,0,11.475-12.552,13.081-11.844c2.237,0.983,4.489,1.951,6.722,2.921c6.561,2.852,13.395,4.181,20.553,3.756 c12.177-0.709,24.847-7.173,26.006-21.762C323.938,161.574,291.481,151.129,288.638,148.448z"/> </g> </g>
</svg>