<svg id="Ebene_1" data-name="Ebene 1" xmlns="http://www.w3.org/2000/svg" viewBox="0 0 848.17 255.01"><defs><style>.cls-1,.cls-2,.cls-7{fill:#333;}.cls-2,.cls-7{font-size:125.02px;}.cls-2{font-family:AcuminProSemiCond-ThinItalic, Acumin Pro SemiCondensed;font-weight:200;font-style:italic;letter-spacing:0.02em;}.cls-3{letter-spacing:0em;}.cls-4{letter-spacing:-0.02em;}.cls-5{letter-spacing:0em;}.cls-6{letter-spacing:-0.01em;}.cls-7{font-family:BrushScriptStd, Brush Script Std;}</style></defs><title>car_android_MyCargonaut</title><path id="Car" class="cls-1" d="M913.35,484.19s57.17,6.53,88.21,44.1c23.09,28,21.23,71.88,21.23,71.88s32.3-17.08,28.86-54.08c-2.72-29.23-19.06-43.93-19.06-43.93s-11.81-11.69-9.8-21.24c6.54-31-8.17-27.41-8.17-27.41s-8.88,15.43-21.61,15.43c-15.43,0-49.37-6.17-49.37-6.17L746.13,416.48s-52.46-15.43-151.21-15.43-191.34,86.41-191.34,86.41H323.35l169.73-86.41s27.77-21.6,129.61-15.43C727.47,392,777,407.22,777,407.22l185.16,46.29s17.44,4.54,32.87,4.54,16.34-18,16.34-18,.17-5.1,9.43,1.08,15.43,18.51,15.43,30.86-3.09,12.34,6.17,21.6,27.26,28,29.41,55.9c1.63,21.23-6.54,42.47-26.32,55.2a106.56,106.56,0,0,1-43.21,15.43s11.1-48.57-12.15-78.8c-16.33-21.23-28.67-26.5-44.1-32.67a84.91,84.91,0,0,0-30.16-5.8Z" transform="translate(-223.83 -384.51)"/><text class="cls-2" transform="translate(222.03 220.64)">C<tspan class="cls-3" x="80.14" y="0">a</tspan><tspan class="cls-4" x="139.02" y="0">r</tspan><tspan class="cls-5" x="173.53" y="0">go</tspan><tspan class="cls-6" x="297.93" y="0">n</tspan><tspan class="cls-5" x="360.19" y="0">aut</tspan></text><text class="cls-7" transform="translate(0 220)">My</text></svg>