<svg id="Ebene_1" data-name="Ebene 1" xmlns="http://www.w3.org/2000/svg" viewBox="0 0 901 378.52"><defs><style>.cls-1,.cls-2,.cls-7{fill:#005b52;}.cls-2,.cls-7{font-size:125.02px;}.cls-2{font-family:AcuminProSemiCond-ThinItalic, Acumin Pro SemiCondensed;font-weight:200;font-style:italic;letter-spacing:0.02em;}.cls-3{letter-spacing:0em;}.cls-4{letter-spacing:-0.02em;}.cls-5{letter-spacing:0em;}.cls-6{letter-spacing:-0.01em;}.cls-7{font-family:BrushScriptStd, Brush Script Std;}</style></defs><title>semi_androidMyCargonaut</title><g id="Truck"><polyline class="cls-1" points="316 221 313 233 892 233"/><polyline class="cls-1" points="322 173 319 185 898 192"/><polyline class="cls-1" points="325 129 322 141 898 154"/><polyline class="cls-1" points="331 80 328 92 898 112"/><polyline class="cls-1" points="336 33 333 45 901 74"/><polygon class="cls-1" points="279 233 299 233 326 0 307 0 279 233"/><path class="cls-1" d="M430,457l26-163-52,1s-40,2-65,19-30,34-30,34l89-2-76-3s7.73-17.67,32-27a173,173,0,0,1,49-11h38Z" transform="translate(-160 -261)"/><path class="cls-1" d="M398,354l-95,2s-26-2-38,26c-8.85,20.66-11,30-11,30l-26,1s-33-1-53,36c-14.89,27.54-15,44-15,44l96,1s11-35,37-35c38,0,48,29,48,29s-3-37-49-37c-31,0-39,31-39,31H181s7-37,22-47a59.56,59.56,0,0,1,30-10l126-4,10-50-77,2s2-9,10-11a87.93,87.93,0,0,1,18-2Z" transform="translate(-160 -261)"/></g><text class="cls-2" transform="translate(285.87 344.15)">C<tspan class="cls-3" x="80.14" y="0">a</tspan><tspan class="cls-4" x="139.02" y="0">r</tspan><tspan class="cls-5" x="173.53" y="0">go</tspan><tspan class="cls-6" x="297.93" y="0">n</tspan><tspan class="cls-5" x="360.19" y="0">aut</tspan></text><text class="cls-7" transform="translate(63.83 343.51)">My</text></svg>